# xmcd CD database file generated by Grip 3.0.7
# 
# Track frame offsets:
#       150
#       13665
#       26537
#       39500
#       51232
#       64935
#       78120
#       91670
#       106830
#       119262
#       130880
#       143532
#       160572
#       207117
#       246472
#       264292
# 
# Disc length: 3860 seconds
# 
# Revision: 2
# Processed by: cddbd v1.5.1PL0 Copyright (c) Steve Scherf et al.
# Submitted via: Grip 3.0.7
# 
DISCID=c60f1210
DTITLE=Albert King - Blues At Sunrise
DYEAR=1987
DGENRE=Blues
TTITLE0=Bad Luck Blues
TTITLE1=Be On Your Merry Way
TTITLE2=Let's Have A Natural Ball
TTITLE3=Wild Woman
TTITLE4=Howlin' For My Darling
TTITLE5=Don't Throw Your Love On Me So Strong
TTITLE6=Travelin' to California
TTITLE7=Laundromat Blues
TTITLE8=Oh, Pretty Woman
TTITLE9=Crosscut Saw
TTITLE10=Born Under A bad Sign
TTITLE11=As The Years Go Passing By
TTITLE12=Blues Power
TTITLE13=Blues At Sunrise
TTITLE14=Killing Floor
TTITLE15=I'll Play The blues For You
EXTD=
EXTT0=
EXTT1=
EXTT2=
EXTT3=
EXTT4=
EXTT5=
EXTT6=
EXTT7=
EXTT8=
EXTT9=
EXTT10=
EXTT11=
EXTT12=
EXTT13=
EXTT14=
EXTT15=
PLAYORDER=
